<svg width="20" height="20" viewBox="0 0 20 20" fill="none" xmlns="http://www.w3.org/2000/svg">
<path d="M10 2C10 2 7 5 7 8C7 9.7 8.3 11 10 11C11.7 11 13 9.7 13 8C13 5 10 2 10 2Z" fill="#F8F6F0"/>
<path d="M10 11C10 11 13 14 13 17C13 18.7 11.7 20 10 20C8.3 20 7 18.7 7 17C7 14 10 11 10 11Z" fill="#F8F6F0"/>
<path d="M6 13.5C6.82843 13.5 7.5 12.8284 7.5 12C7.5 11.1716 6.82843 10.5 6 10.5C5.17157 10.5 4.5 11.1716 4.5 12C4.5 12.8284 5.17157 13.5 6 13.5Z" fill="#F8F6F0"/>
<path d="M14 13.5C14.8284 13.5 15.5 12.8284 15.5 12C15.5 11.1716 14.8284 10.5 14 10.5C13.1716 10.5 12.5 11.1716 12.5 12C12.5 12.8284 13.1716 13.5 14 13.5Z" fill="#F8F6F0"/>
</svg>
