<svg width="57" height="57" viewBox="0 0 57 57" fill="none" xmlns="http://www.w3.org/2000/svg">
<path d="M23.75 39.1875L30.875 41.5625C30.875 41.5625 48.6875 38 51.0625 38C53.4375 38 53.4375 40.375 51.0625 42.75C48.6875 45.125 40.375 52.25 33.25 52.25C26.125 52.25 21.375 48.6875 16.625 48.6875H4.75" stroke="#6A8A6A" stroke-width="2" stroke-linecap="round" stroke-linejoin="round"/>
<path d="M4.75 34.4375C7.125 32.0625 11.875 28.5 16.625 28.5C21.375 28.5 32.6562 33.25 34.4375 35.625C36.2188 38 30.875 41.5625 30.875 41.5625" stroke="#6A8A6A" stroke-width="2" stroke-linecap="round" stroke-linejoin="round"/>
<path d="M40.375 29.6875C42.3425 29.6875 43.9375 28.0925 43.9375 26.125C43.9375 24.1575 42.3425 22.5625 40.375 22.5625C38.4075 22.5625 36.8125 24.1575 36.8125 26.125C36.8125 28.0925 38.4075 29.6875 40.375 29.6875Z" stroke="#6A8A6A" stroke-width="2"/>
<path d="M26.125 21.375C28.0925 21.375 29.6875 19.78 29.6875 17.8125C29.6875 15.845 28.0925 14.25 26.125 14.25C24.1575 14.25 22.5625 15.845 22.5625 17.8125C22.5625 19.78 24.1575 21.375 26.125 21.375Z" stroke="#6A8A6A" stroke-width="2"/>
<path d="M40.375 11.875C42.3425 11.875 43.9375 10.28 43.9375 8.3125C43.9375 6.34499 42.3425 4.75 40.375 4.75C38.4075 4.75 36.8125 6.34499 36.8125 8.3125C36.8125 10.28 38.4075 11.875 40.375 11.875Z" stroke="#6A8A6A" stroke-width="2"/>
</svg>
